<svg width="1512" height="800" viewBox="0 0 1512 800" fill="none" xmlns="http://www.w3.org/2000/svg">
<g clip-path="url(#clip0_724_466)">
<path opacity="0.25" d="M1696.86 -154.095L379.565 -155C313.736 -154.662 250.821 -154.433 185 -154.095C236.521 -154.363 301.476 -84.1712 335.831 -50.5706C386.707 -0.822856 426.913 59.1939 454.063 124.861C480.395 188.568 498.427 257.367 541.334 312.725C603.674 393.162 696.646 375.929 786.318 384.805C838.69 389.991 889.494 404.619 937.189 426.723C960.788 437.661 983.545 450.346 1005.6 464.124C1018.01 471.875 1063.49 493.279 1067.85 506.979C1053.59 462.071 1037.37 418.838 1038.47 371.184C1041.99 218.856 1164.97 116.984 1281.66 38.1839C1407.49 -46.7776 1549.21 -107.211 1693.78 -152.608C1595.32 -97.2256 1521.47 -4.26928 1476.83 98.5155C1392.38 292.942 1419.43 512.196 1521.05 696L1696.91 696C1696.94 695.843 1696.97 695.669 1697 695.504L1697 580.389L1696.85 -154.103L1696.86 -154.095Z" fill="#33663F"/>
<path opacity="0.25" d="M1.81344e-05 385.134C0.0739928 383.37 139.814 399.563 151.391 401.743C223.193 415.248 294.829 438.093 353.815 482.128C405.423 520.658 447.653 571.639 477.077 628.829C504.198 681.557 520.861 740.492 521 800L1.93817e-08 799.557C1.93817e-08 799.557 1.81344e-05 385.134 1.81348e-05 385.125L1.81344e-05 385.134Z" fill="#33663F"/>
</g>
<defs>
<clipPath id="clip0_724_466">
<rect width="1512" height="800" fill="white"/>
</clipPath>
</defs>
</svg>
