<svg width="1327" height="696" viewBox="0 0 1327 696" fill="none" xmlns="http://www.w3.org/2000/svg">
<path opacity="0.25" d="M1511.86 -154.095L194.565 -155C128.736 -154.662 65.821 -154.433 -1.58224e-07 -154.095C51.5213 -154.363 116.476 -84.1712 150.831 -50.5706C201.707 -0.822856 241.913 59.1939 269.063 124.861C295.395 188.568 313.427 257.367 356.334 312.725C418.674 393.162 511.646 375.929 601.318 384.805C653.69 389.991 704.494 404.619 752.189 426.723C775.788 437.661 798.545 450.346 820.6 464.124C833.01 471.875 878.492 493.279 882.847 506.979C868.586 462.071 852.373 418.838 853.468 371.184C856.987 218.856 979.968 116.984 1096.66 38.1839C1222.49 -46.7776 1364.21 -107.211 1508.78 -152.608C1410.32 -97.2256 1336.47 -4.26928 1291.83 98.5155C1207.38 292.942 1234.43 512.196 1336.05 696L1511.91 696C1511.94 695.843 1511.97 695.669 1512 695.504L1512 580.389L1511.85 -154.103L1511.86 -154.095Z" fill="#33663F"/>
</svg>
