<svg width="128" height="24" viewBox="0 0 128 24" fill="none" xmlns="http://www.w3.org/2000/svg">
<g id="Calque_1" clip-path="url(#clip0_576_1171)">
<path id="Vector" d="M71.1274 13.0304C71.0941 15.7463 71.7457 17.888 73.1486 19.5027C74.5448 21.1106 76.2867 21.9011 78.4276 21.9011C80.3823 21.9011 82.3437 21.2052 84.2651 19.8473C82.0578 22.1173 79.5778 23.2523 76.8452 23.2523C74.7044 23.2523 72.8361 22.4348 71.3202 20.7931C69.8043 19.1514 69.0198 16.9759 68.9932 14.2262V0.747803H71.134V13.0236L71.1274 13.0304ZM84.2651 0.747803H86.406V18.4487L84.2651 19.8405V0.747803Z" fill="#F4F3F0"/>
<path id="Vector_2" d="M125.859 0.747803V10.2469H112.848V0.747803H110.707V22.8402H112.848V11.571H125.859V22.8402H128V0.747803H125.859Z" fill="#F4F3F0"/>
<path id="Vector_3" d="M39.5132 22.8402H41.9399L32.7648 0.747803H31.0893L22.6455 22.8402H24.1082L27.2796 14.3208H35.9894L39.5132 22.8402ZM27.7716 12.9966L31.4018 3.24755L35.4375 12.9966H27.7716Z" fill="#F4F3F0"/>
<path id="Vector_4" d="M17.22 0.747803L9.93974 19.3068L2.92541 0.747803H0V22.8402H1.40952V3.0246L8.9358 22.8402H9.8932L17.6721 3.0246V22.8402H19.7532V0.747803H17.22Z" fill="#F4F3F0"/>
<path id="Vector_5" d="M107.395 0.747803H99.6963H97.5554H89.8496V2.08551H97.5554V22.8402H99.6963V2.08551H107.395V0.747803Z" fill="#F4F3F0"/>
<path id="Vector_6" d="M61.8126 0.747803L54.5257 19.3068L47.5113 0.747803H44.5859V22.8402H46.0021V3.0246L53.5217 22.8402H54.4858L62.2581 3.0246V22.8402H64.3391V0.747803H61.8126Z" fill="#F4F3F0"/>
</g>
<defs>
<clipPath id="clip0_576_1171">
<rect width="128" height="22.5045" fill="white" transform="translate(0 0.747803)"/>
</clipPath>
</defs>
</svg>
