<svg width="1512" height="982" viewBox="0 0 1512 982" fill="none" xmlns="http://www.w3.org/2000/svg">
<g clip-path="url(#clip0_17_266)">
<g style="mix-blend-mode:overlay">
<path d="M216.422 0.674232L-122 0V982H49.3642C49.3467 926.185 59.9129 870.433 79.435 823.674C120.422 725.491 199.205 682.65 264.755 637.058C303.759 609.924 365.773 580.832 381.03 510.202C419.153 333.663 330.375 102.082 216.422 0.674232Z" fill="#485643"/>
</g>
<g style="mix-blend-mode:overlay">
<path d="M1617 703.145C1616.92 701.235 1465.8 718.765 1453.28 721.125C1375.63 735.745 1298.16 760.475 1234.37 808.145C1178.56 849.855 1132.89 905.045 1101.07 966.955C1071.74 1024.04 1053.72 1087.84 1053.57 1152.26L1617 1151.78C1617 1151.78 1617 703.145 1617 703.135V703.145Z" fill="#485643"/>
</g>
</g>
<defs>
<clipPath id="clip0_17_266">
<rect width="1512" height="982" fill="white"/>
</clipPath>
</defs>
</svg>
