<svg width="390" height="600" viewBox="0 0 390 600" fill="none" xmlns="http://www.w3.org/2000/svg">
<g clip-path="url(#clip0_17_1409)">
<g style="mix-blend-mode:overlay">
<path d="M33.819 -60.5723L-181 -61V562H-72.2239C-72.235 526.59 -65.5279 491.22 -53.136 461.555C-27.1187 399.266 22.8899 372.087 64.4989 343.162C89.257 325.948 128.622 307.491 138.306 262.682C162.505 150.682 106.152 3.76301 33.819 -60.5723Z" fill="#485643"/>
</g>
<g style="mix-blend-mode:overlay">
<path d="M394 485.062C393.966 484.25 329.863 491.703 324.552 492.706C291.614 498.922 258.752 509.435 231.693 529.702C208.019 547.435 188.647 570.899 175.149 597.22C162.707 621.487 155.064 648.612 155 676L394 675.796C394 675.796 394 485.062 394 485.057V485.062Z" fill="#485643"/>
</g>
<g style="mix-blend-mode:overlay">
<path d="M390 100C386.682 105.391 382.719 110.37 378.947 115.535C376.496 118.892 373.835 122.095 370.991 125.126C341.047 157.052 291.681 166.492 254.55 141.316C250.76 138.746 244.501 133.994 243 129.402C243.094 142.355 245.673 154.406 247.87 167.132C254.59 206.043 268.477 244.104 291.839 276.198C317.372 311.274 351.875 332.251 389.997 351L389.997 100.005L390 100Z" fill="#485643"/>
</g>
</g>
<defs>
<clipPath id="clip0_17_1409">
<rect width="390" height="600" fill="white"/>
</clipPath>
</defs>
</svg>
