<svg width="1512" height="720" viewBox="0 0 1512 720" fill="none" xmlns="http://www.w3.org/2000/svg">
<g clip-path="url(#clip0_17_847)">
<path d="M1700.95 -846.808L1253.28 -640.689C1247.5 -587.38 1273.85 -533.069 1264.81 -477.904C1248.97 -381.302 1134.73 -341.622 1049.65 -368.165C977.744 -390.594 909.38 -420.989 840.673 -450.709L25.0047 -75.1471C186.692 -46.5919 371.541 103.51 398.646 270.325C413.398 361.11 399.277 453.938 414.12 544.707C429.05 636.039 471.215 733.542 540.314 796.716C625.624 874.722 750.165 883.467 808.653 768.807C860.332 667.486 860.834 547.812 978.242 495.59C1058.49 459.901 1156.06 452.983 1242.55 445.095C1385.38 432.082 1535.12 459.053 1674.51 421.053C1793.96 388.483 1917.39 334.005 2000.04 238.666C2122.21 97.7266 2110.01 -123.572 1934.96 -214.563C1860.45 -253.285 1746.42 -281.205 1662.15 -271.403C1797.19 -287.102 1917.18 -392.934 1941.8 -527.913C1969.7 -680.948 1852.74 -826.922 1700.96 -846.827L1700.95 -846.808Z" fill="#FBE437"/>
</g>
<defs>
<clipPath id="clip0_17_847">
<rect width="1512" height="720" fill="white"/>
</clipPath>
</defs>
</svg>
