<svg width="746" height="605" viewBox="0 0 746 605" fill="none" xmlns="http://www.w3.org/2000/svg">
<path d="M613.584 0.206451L449.69 75.6689C447.206 94.3928 456.375 113.236 452.696 132.635C446.253 166.603 404.524 181.333 373.848 172.644C347.922 165.302 323.34 155.143 298.628 145.223L0.00162538 282.721C58.4545 291.562 124.434 342.833 133.065 401.098C137.762 432.808 131.97 465.442 136.701 497.145C141.458 529.045 156.053 562.911 180.666 584.553C211.053 611.275 256.173 613.442 278.218 572.837C297.698 536.956 298.743 495.013 341.714 475.865C371.083 462.779 406.533 459.651 437.968 456.263C489.88 450.673 544.008 459.045 594.851 444.723C638.424 432.447 683.596 412.466 714.266 378.458C759.606 328.184 756.774 250.717 693.922 220.091C667.171 207.058 626.005 198.096 595.36 202.138C644.465 195.663 688.761 157.709 698.664 110.227C709.891 56.3947 668.51 6.08093 613.59 0.199482L613.584 0.206451Z" fill="#FBE437"/>
</svg>
