<svg width="1512" height="720" viewBox="0 0 1512 720" fill="none" xmlns="http://www.w3.org/2000/svg">
<g clip-path="url(#clip0_17_1104)">
<path opacity="0.25" d="M203.656 969.134L624.444 1058.19C656.281 1023.89 666.144 972.141 701.228 938.24C762.668 878.878 863.311 910.645 909.032 973.572C947.674 1026.75 979.684 1083.66 1012.29 1140.28L1778.99 1302.55C1680.7 1198.28 1629.55 996.863 1697.52 865.97C1734.52 794.732 1792.79 737.116 1829.71 665.843C1866.86 594.131 1888.17 503.903 1872.73 423.666C1853.68 324.597 1771.06 253.561 1670.35 303.335C1581.37 347.319 1518.64 430.827 1409.23 406.184C1334.46 389.341 1262.56 343.322 1197.9 303.762C1091.14 238.422 1000.39 141.496 883.014 95.4417C782.42 55.9752 667.626 29.7719 560.084 53.4307C401.102 88.4035 294.296 249.669 369.401 404.604C401.371 470.543 466.633 549.52 530.732 586.586C428.025 527.188 288.868 538.722 201.283 620.375C101.983 712.951 107.768 876.094 203.634 969.139L203.656 969.134Z" fill="#C74200"/>
</g>
<defs>
<clipPath id="clip0_17_1104">
<rect width="1512" height="720" fill="white"/>
</clipPath>
</defs>
</svg>
