<svg width="1512" height="720" viewBox="0 0 1512 720" fill="none" xmlns="http://www.w3.org/2000/svg">
<g clip-path="url(#clip0_17_764)">
<path fill-rule="evenodd" clip-rule="evenodd" d="M307 718.992H468.552C477.143 704.648 481.485 688.185 485.864 671.586C490.732 653.128 495.645 634.503 506.493 618.438C542.573 565.013 621.829 572.74 665.411 612.053C699.303 642.624 729.544 676.402 759.798 710.196C762.423 713.129 765.049 716.062 767.677 718.992L1359 718.993C1270.15 657.376 1200.92 516.668 1230.65 409.412C1238.73 380.271 1251.25 352.808 1263.77 325.346C1276.33 297.798 1288.89 270.25 1296.96 241.01C1313.19 182.262 1314.82 112.321 1290.89 55.4963C1261.34 -14.6659 1189.26 -54.2004 1122.69 -1.71876C1105.58 11.773 1090.64 27.3869 1075.96 42.7194C1040.18 80.0911 1006 115.791 946.009 115.012C891.703 114.306 835.243 94.209 783.922 75.9422C780.594 74.7577 777.288 73.5808 774.005 72.4175C740.097 60.3971 707.188 44.6303 674.249 28.8497C620.716 3.20205 567.106 -22.4819 509.011 -32.1771C428.588 -45.5961 339.755 -47.0043 264.065 -12.7342C255.694 -8.9444 247.726 -4.68357 240.173 -4.57764e-05H0V719H307V718.992Z" fill="#B5D1CC"/>
</g>
<defs>
<clipPath id="clip0_17_764">
<rect width="1512" height="720" fill="white"/>
</clipPath>
</defs>
</svg>
