<svg width="1276" height="760" viewBox="0 0 1276 760" fill="none" xmlns="http://www.w3.org/2000/svg">
<path d="M385.552 759.993L61.0181 759.993L61.0032 760C-24.3007 706.287 4.77895 502.886 4.77895 502.886L95.1707 317.32C29.1061 213.751 69.1702 78.9263 181.065 28.2658C256.755 -6.00424 345.588 -4.59603 426.011 8.82298C519.851 24.4834 601.987 81.8608 691.005 113.418C744.911 132.521 805.182 155.26 863.009 156.012C947.619 157.111 980.878 85.658 1039.69 39.2813C1106.26 -13.2003 1178.34 26.3342 1207.89 96.4964C1231.82 153.321 1230.19 223.262 1213.96 282.01C1197.84 340.398 1163.83 392.039 1147.65 450.412C1117.92 557.668 1187.15 698.376 1276 759.993L684.677 759.993C651.765 723.289 619.244 686.277 582.411 653.053C538.829 613.74 459.573 606.013 423.493 659.438C402.891 689.948 403.696 729.697 385.552 759.993Z" fill="#B5D1CC"/>
</svg>
