<svg width="1511" height="720" viewBox="0 0 1511 720" fill="none" xmlns="http://www.w3.org/2000/svg">
<g clip-path="url(#clip0_17_764)">
<path fill-rule="evenodd" clip-rule="evenodd" d="M306 718.992H467.552C476.143 704.648 480.485 688.185 484.864 671.586C489.732 653.128 494.645 634.503 505.493 618.438C541.573 565.013 620.829 572.74 664.411 612.053C698.303 642.624 728.544 676.402 758.798 710.196C761.423 713.129 764.049 716.062 766.677 718.992L1358 718.993C1269.15 657.376 1199.92 516.668 1229.65 409.412C1237.73 380.271 1250.25 352.808 1262.77 325.346C1275.33 297.798 1287.89 270.25 1295.96 241.01C1312.19 182.262 1313.82 112.321 1289.89 55.4963C1260.34 -14.6659 1188.26 -54.2004 1121.69 -1.71876C1104.58 11.773 1089.64 27.3869 1074.96 42.7194C1039.18 80.0911 1005 115.791 945.009 115.012C890.703 114.306 834.243 94.209 782.922 75.9422C779.594 74.7577 776.288 73.5808 773.005 72.4175C739.097 60.3971 706.188 44.6303 673.249 28.8497C619.716 3.20205 566.106 -22.4819 508.011 -32.1771C427.588 -45.5961 338.755 -47.0043 263.065 -12.7342C254.694 -8.9444 246.726 -4.68357 239.173 -4.57764e-05H-1V719H306V718.992Z" fill="#B5D1CC"/>
</g>
<defs>
<clipPath id="clip0_17_764">
<rect width="1512" height="720" fill="white" transform="translate(-1)"/>
</clipPath>
</defs>
</svg>
