<svg width="390" height="600" viewBox="0 0 390 600" fill="none" xmlns="http://www.w3.org/2000/svg">
<g clip-path="url(#clip0_17_1925)">
<rect width="390" height="600" fill="#B5D1CC"/>
<rect width="390" height="600" fill="#C0D8D4"/>
<path d="M-23.4903 599.995L-236.879 599.995L-236.889 600C-292.978 564.662 -273.858 430.846 -273.858 430.846L-214.423 308.763C-257.862 240.626 -231.519 151.925 -157.945 118.596C-108.178 96.0498 -49.7675 96.9763 3.11235 105.805C64.8145 116.107 118.821 153.856 177.352 174.617C212.797 187.185 252.426 202.145 290.449 202.639C346.081 203.362 367.95 156.354 406.623 125.843C450.39 91.3155 497.788 117.325 517.214 163.484C532.95 200.869 531.877 246.883 521.21 285.533C510.611 323.946 488.247 357.92 477.609 396.323C458.061 466.887 503.58 559.458 562 599.995L173.191 599.995C151.551 575.848 130.168 551.498 105.949 529.64C77.2927 503.776 25.18 498.693 1.45661 533.841C-12.0899 553.913 -11.5606 580.064 -23.4903 599.995Z" fill="#B5D1CC"/>
</g>
<defs>
<clipPath id="clip0_17_1925">
<rect width="390" height="600" fill="white"/>
</clipPath>
</defs>
</svg>
