<svg width="1432" height="254" viewBox="0 0 1432 254" fill="none" xmlns="http://www.w3.org/2000/svg">
<g clip-path="url(#clip0_347_806)">
<path d="M795.737 138.629C795.365 169.283 802.654 193.455 818.349 211.679C833.969 229.828 853.457 238.749 877.408 238.749C899.277 238.749 921.219 230.895 942.716 215.568C918.021 241.189 890.276 254 859.705 254C835.754 254 814.853 244.773 797.894 226.244C780.935 207.714 772.158 183.161 771.86 152.125V0H795.811V138.552L795.737 138.629ZM942.716 0H966.667V199.784L942.716 215.492V0Z" fill="#F4F3F0"/>
<path d="M1408.05 0V107.212H1262.48V0H1238.53V249.349H1262.48V122.158H1408.05V249.349H1432V0H1408.05Z" fill="#F4F3F0"/>
<path d="M442.052 249.349H469.201L366.554 0H347.81L253.345 249.349H269.709L305.189 153.193H402.629L442.052 249.349ZM310.693 138.247L351.306 28.2138L396.455 138.247H310.693Z" fill="#F4F3F0"/>
<path d="M192.649 0L111.201 209.468L32.728 0H0V249.349H15.769V25.6974L99.9692 249.349H110.68L197.707 25.6974V249.349H220.989V0H192.649Z" fill="#F4F3F0"/>
<path d="M1201.49 0H1115.36H1091.4H1005.2V15.0982H1091.4V249.349H1115.36V15.0982H1201.49V0Z" fill="#F4F3F0"/>
<path d="M691.528 0L610.006 209.468L531.533 0H498.805V249.349H514.648V25.6974L598.774 249.349H609.559L696.512 25.6974V249.349H719.793V0H691.528Z" fill="#F4F3F0"/>
</g>
<defs>
<clipPath id="clip0_347_806">
<rect width="1432" height="254" fill="white"/>
</clipPath>
</defs>
</svg>
