<svg width="1432" height="560" viewBox="0 0 1432 560" fill="none" xmlns="http://www.w3.org/2000/svg">
<g clip-path="url(#clip0_743_221)">
<path opacity="0.25" d="M260.589 -176.233L-269 -176.909V807.251H-0.836639C-0.864044 751.313 15.6708 695.439 46.2205 648.577C110.36 550.178 233.645 507.243 336.223 461.55C397.259 434.357 494.304 405.201 518.179 334.415C577.836 157.488 438.911 -74.6021 260.589 -176.233Z" fill="#9999FF"/>
<path opacity="0.25" d="M1484 397.905C1483.93 396.161 1345.95 412.168 1334.52 414.323C1263.62 427.673 1192.89 450.255 1134.65 493.783C1083.7 531.87 1042 582.266 1012.95 638.797C986.166 690.919 969.714 749.176 969.577 808L1484 807.562C1484 807.562 1484 397.905 1484 397.896V397.905Z" fill="#9999FF"/>
<path opacity="0.25" d="M584.163 -179C603.492 -167.111 621.341 -152.912 639.857 -139.398C651.891 -130.613 663.377 -121.08 674.242 -110.89C788.698 -3.59726 822.544 173.285 732.283 306.327C723.07 319.906 706.033 342.332 689.571 347.71C736.008 347.373 779.212 338.132 824.835 330.261C964.336 306.181 1100.79 256.425 1215.85 172.719C1341.6 81.2323 1416.8 -42.3961 1484.02 -178.991H584.181L584.163 -179Z" fill="#9999FF"/>
</g>
<defs>
<clipPath id="clip0_743_221">
<rect width="1753" height="987" fill="white" transform="translate(-269 -179)"/>
</clipPath>
</defs>
</svg>
