<svg width="358" height="560" viewBox="0 0 358 560" fill="none" xmlns="http://www.w3.org/2000/svg">
<g clip-path="url(#clip0_17_2071)">
<path opacity="0.25" d="M53.5936 1.56991L-247 1.18652V559.575H-94.7909C-94.8065 527.837 -85.4213 496.136 -68.0814 469.547C-31.6758 413.718 38.3007 389.358 96.5237 363.433C131.167 348.004 186.25 331.462 199.802 291.3C233.663 190.915 154.809 59.233 53.5936 1.56991Z" fill="#9999FF"/>
<path opacity="0.25" d="M416.986 327.322C416.944 326.332 338.63 335.414 332.141 336.637C291.901 344.211 251.754 357.024 218.696 381.721C189.773 403.33 166.106 431.923 149.616 463.998C134.416 493.571 125.078 526.625 125 560L416.986 559.751C416.986 559.751 416.986 327.322 416.986 327.317V327.322Z" fill="#9999FF"/>
<path opacity="0.25" d="M280 0C299.031 11.6923 316.606 25.6566 334.837 38.9474C346.685 47.5865 357.994 56.9619 368.692 66.9838C481.386 172.502 514.71 346.459 425.839 477.301C416.768 490.655 399.994 512.711 383.785 518C429.507 517.668 472.046 508.58 516.967 500.839C654.319 477.158 788.669 428.224 901.957 345.902C1025.77 255.929 1099.82 134.345 1166 0.00898027H280.018L280 0Z" fill="#9999FF"/>
</g>
<defs>
<clipPath id="clip0_17_2071">
<rect width="995" height="560" fill="white" transform="translate(-373)"/>
</clipPath>
</defs>
</svg>
